<svg version="1.1" xmlns="http://www.w3.org/2000/svg" style="display: block;"
	viewBox="0 0 2048 2048" width="1024" height="1024" preserveAspectRatio="none">
	<defs>
		<linearGradient id="Gradient1" gradientUnits="userSpaceOnUse" x1="1430.78" y1="789.361"
			x2="1404.49" y2="698.208">
			<stop class="stop0" offset="0" stop-opacity="1" stop-color="rgb(214,242,147)" />
			<stop class="stop1" offset="1" stop-opacity="1" stop-color="rgb(234,245,199)" />
		</linearGradient>
		<linearGradient id="Gradient2" gradientUnits="userSpaceOnUse" x1="1053.4" y1="684.469"
			x2="991.668" y2="607.438">
			<stop class="stop0" offset="0" stop-opacity="1" stop-color="rgb(210,242,140)" />
			<stop class="stop1" offset="1" stop-opacity="1" stop-color="rgb(235,245,199)" />
		</linearGradient>
	</defs>
	<path transform="translate(-300,-150) scale(1.3)" fill="rgb(36,49,60)"
		d="M 1203.57 503.061 C 1203.88 503.046 1205.84 502.553 1206.07 503.494 C 1242.48 651.246 1193.81 808.077 1034.72 853.347 C 994.103 866.096 952.919 865.468 915.57 888.12 C 880.228 909.554 867.592 942.682 842.206 971.655 C 904.226 951.536 978.447 938.43 1042.2 922.423 C 1068.2 915.894 1105.44 908.584 1129.61 898.829 C 1148.01 891.537 1164.94 880.982 1179.59 867.67 C 1193.81 854.752 1206.47 836.154 1217.6 820.388 C 1257.45 763.967 1301.78 714.145 1371.39 695.603 C 1467.47 670.011 1568.47 685.187 1666.41 690.221 C 1663.8 699.292 1661.07 708.33 1658.23 717.334 C 1609.98 868.222 1485.13 988.041 1317.59 962.082 C 1265.94 954.079 1222.67 928.328 1173.24 932.534 C 1148.01 934.681 1104.34 948.564 1078.98 956.471 C 980.579 987.151 880.543 1019.12 788.734 1066.32 C 842.424 1057.12 892.234 1064.63 945.743 1063.05 C 965.627 1062.47 992.724 1053.11 1011.27 1045.39 C 1048.61 1027.38 1078.47 1012.45 1120.41 1006.6 C 1220.91 992.572 1299 1063.58 1376.87 1114.56 C 1386.92 1121.15 1397.84 1126.84 1407.31 1134.15 C 1375.91 1166.6 1321.77 1198.05 1279.01 1212.62 C 1192.31 1245.33 1099.11 1224.14 1027.21 1167.61 C 965.956 1119.44 948.79 1098.68 866.719 1098.87 C 769.666 1099.72 674.835 1128.01 593.186 1180.49 C 574.343 1192.6 556.978 1204.57 538.729 1217.17 C 524.016 1227.33 498.072 1251.36 483.596 1256.21 C 458.66 1263.32 425.201 1263.12 401.716 1252.26 C 373.105 1237.84 383.588 1220.85 400.658 1203.73 C 467.586 1136.6 545.886 1087.54 631.063 1046.82 C 659.173 1033.38 697.559 1020.39 724.302 1003.72 C 776.892 970.955 834.152 924.18 863.735 868.693 C 872.192 851.934 876.949 813.399 878.907 794.174 C 882.837 755.607 885.915 724.775 903.249 689.021 C 944.191 604.569 1036.95 567.515 1118.83 534.59 C 1146.51 523.461 1175.28 512.5 1203.57 503.061 z" />
	<path transform="translate(-300,-150) scale(1.3)" fill="rgb(103,182,60)"
		d="M 1192.73 522.375 L 1195.06 521.65 C 1196.4 523.938 1196.17 523.129 1196.43 525.597 C 1207.1 607.367 1200.37 683.306 1149.03 751.626 C 1115.62 796.071 1071.77 823.672 1017.14 834.354 C 998.346 838.028 978.008 838.536 959.618 844.549 C 939.926 850.988 921.893 864.262 903.824 873.661 C 907.842 866.074 929.846 828.037 935.305 823.613 C 942.538 810.348 950.853 800.258 959.265 788.328 C 986.42 749.818 1016.56 719.527 1049.98 687.105 C 1065.7 671.86 1096.25 642.538 1109.31 626.105 C 1103.49 629.05 1081.85 648.939 1074.55 654.7 C 1027.1 692.178 977.145 736.641 937.811 782.556 C 920.318 802.977 900.525 833.189 885.163 855.584 C 886.61 847.794 888.312 831.092 889.839 825.499 C 893.077 777.098 895.494 734.023 916.98 690.047 C 958.299 605.476 1044.08 577.241 1126.66 548.374 C 1148.38 540.781 1170.28 529.842 1192.73 522.375 z" />
	<path transform="translate(-300,-150) scale(1.3)" fill="url(#Gradient2)"
		d="M 1192.73 522.375 C 1193.6 524.766 1192.75 526.166 1191.2 528.935 C 1173.08 561.486 1141.67 600.274 1111.15 620.242 C 1100.22 626.497 1089.7 634.419 1078.58 640.868 C 1017.35 676.393 963.401 716.251 918.655 771.782 C 909.056 783.694 902.486 795.633 896.059 809.492 C 893.767 814.435 893.035 822.957 889.839 825.499 C 893.077 777.098 895.494 734.023 916.98 690.047 C 958.299 605.476 1044.08 577.241 1126.66 548.374 C 1148.38 540.781 1170.28 529.842 1192.73 522.375 z" />
	<path transform="translate(-300,-150) scale(1.3)" fill="rgb(58,146,97)"
		d="M 1196.43 525.597 C 1207.1 607.367 1200.37 683.306 1149.03 751.626 C 1115.62 796.071 1071.77 823.672 1017.14 834.354 C 998.346 838.028 978.008 838.536 959.618 844.549 C 939.926 850.988 921.893 864.262 903.824 873.661 C 907.842 866.074 929.846 828.037 935.305 823.613 C 944.305 823.236 962.089 812.727 971.678 810.714 C 1128.16 777.861 1179.06 676.015 1196.43 525.597 z" />
	<path transform="translate(-300,-150) scale(1.3)" fill="rgb(103,182,60)"
		d="M 1023.76 1052.54 C 1082.32 1022.47 1137.3 1003.09 1202.53 1024.74 C 1256.5 1042.65 1285.52 1070.53 1328.61 1102.42 C 1344.56 1114.05 1361.08 1124.9 1378.1 1134.91 L 1378.91 1136.75 C 1377.73 1137.61 1372.17 1141.82 1371.16 1142.37 C 1356.2 1158.48 1308.6 1181.03 1288.51 1189.17 C 1215.24 1219.88 1117.06 1217.11 1055.05 1163.08 C 1022.18 1134.45 1010.11 1115.57 967.702 1097.34 C 986.446 1096.62 1004.86 1096.02 1023.62 1096.95 C 1074.23 1097.1 1124.75 1101.48 1174.63 1110.06 C 1192.66 1113.27 1210.65 1116.63 1228.62 1120.15 C 1236.9 1121.73 1251.74 1124.92 1259.72 1125.12 C 1246.19 1119.64 1231.17 1116.29 1217.18 1111.84 C 1155.11 1092.1 1090.11 1079.69 1025.16 1074.91 C 1010.73 1073.84 996.432 1073.39 982.094 1071.55 C 993.343 1065.57 1011.34 1058.33 1023.76 1052.54 z" />
	<path transform="translate(-300,-150) scale(1.3)" fill="rgb(219,241,162)"
		d="M 1023.76 1052.54 C 1082.32 1022.47 1137.3 1003.09 1202.53 1024.74 C 1256.5 1042.65 1285.52 1070.53 1328.61 1102.42 C 1344.56 1114.05 1361.08 1124.9 1378.1 1134.91 L 1378.91 1136.75 C 1354.14 1140.16 1284.59 1136.38 1263.99 1124.76 C 1210.94 1080.57 1092.24 1065.25 1023.76 1052.54 z" />
	<path transform="translate(-300,-150) scale(1.3)" fill="rgb(238,250,201)"
		d="M 1139.62 1024.37 C 1168.87 1019.28 1211.08 1033.82 1236.7 1048.17 C 1259.91 1061.17 1283.59 1078.57 1307.26 1091.45 C 1310.31 1093.11 1311.4 1093.84 1311.96 1097 L 1312.97 1096.76 C 1307.61 1098 1270.82 1083.26 1262.76 1080.22 C 1243.61 1073.06 1222.35 1062.32 1203.23 1056.2 C 1155.46 1040.91 1111.66 1044.61 1063.36 1046.45 C 1090.49 1034.01 1110.3 1027.91 1139.62 1024.37 z" />
	<path transform="translate(-300,-150) scale(1.3)" fill="rgb(58,146,97)"
		d="M 967.702 1097.34 C 986.446 1096.62 1004.86 1096.02 1023.62 1096.95 C 1033.1 1105.4 1045.5 1112.61 1054.48 1120.74 C 1100.28 1162.2 1152.51 1183.34 1215 1179.33 C 1258.32 1176.54 1303.49 1164.82 1344.73 1150.95 C 1350.6 1148.98 1366.26 1142.01 1371.16 1142.37 C 1356.2 1158.48 1308.6 1181.03 1288.51 1189.17 C 1215.24 1219.88 1117.06 1217.11 1055.05 1163.08 C 1022.18 1134.45 1010.11 1115.57 967.702 1097.34 z" />
	<path transform="translate(-300,-150) scale(1.3)" fill="rgb(103,182,60)"
		d="M 1639.13 707.346 C 1639.96 706.576 1643.02 704.797 1644.15 704.095 C 1636.92 735.171 1629.53 747.58 1614.81 774.829 C 1584.98 830.049 1549.71 872.228 1495.87 905.766 C 1433.14 944.838 1365.03 950.388 1294.07 934.474 C 1272.52 929.643 1253.25 921.769 1232.11 916.705 C 1219.9 913.781 1201.97 913.774 1189.16 913.835 C 1211.8 903.42 1233.38 892.558 1256.73 883.424 C 1306.8 858.641 1359.27 835.07 1410.16 811.941 C 1436.25 800.083 1463.07 789.513 1488.91 776.934 C 1498.33 772.347 1508.93 769.509 1517.94 763.97 L 1517.53 762.73 C 1518.58 762.259 1527.64 760.162 1530.41 759.162 C 1544.97 753.904 1560.84 749.029 1574.95 742.785 C 1586.76 737.512 1598.26 731.563 1609.39 724.969 C 1617.98 719.79 1629.47 712.103 1638.16 707.812 L 1639.13 707.346 z" />
	<path transform="translate(-300,-150) scale(1.3)" fill="rgb(58,146,97)"
		d="M 1639.13 707.346 C 1639.96 706.576 1643.02 704.797 1644.15 704.095 C 1636.92 735.171 1629.53 747.58 1614.81 774.829 C 1584.98 830.049 1549.71 872.228 1495.87 905.766 C 1433.14 944.838 1365.03 950.388 1294.07 934.474 C 1272.52 929.643 1253.25 921.769 1232.11 916.705 C 1219.9 913.781 1201.97 913.774 1189.16 913.835 C 1211.8 903.42 1233.38 892.558 1256.73 883.424 C 1264.34 887.906 1286.56 891.387 1296.02 893.59 C 1348.49 905.926 1403.63 904.065 1453.93 884.622 C 1521.98 858.321 1570.35 808.478 1610.33 749.146 C 1618.3 737.317 1633.59 719.708 1639.13 707.346 z" />
	<path transform="translate(-300,-150) scale(1.3)" fill="rgb(74,175,183)"
		d="M 513.046 1211.78 C 504.306 1219.21 489.685 1234.07 480.711 1239.73 C 466.153 1248.91 406.923 1247.75 400.713 1230.15 C 406.57 1218.64 463.26 1170.24 476.178 1159.58 C 660.104 1007.83 897.403 968.175 1122.24 914.701 C 1140.92 910.258 1167.56 898.631 1186.33 891.553 L 1270.78 860.138 C 1281.84 855.984 1316.31 842.247 1326.34 840.23 C 1323 842.905 1291.29 857.579 1285.48 860.249 C 1196.13 901.158 1103.87 935.395 1009.46 962.68 C 1001.98 967.901 969.599 978.319 959.516 981.816 C 935.517 990.18 911.571 998.695 887.68 1007.36 C 848.737 1021.91 798.017 1043.86 760.758 1061.93 C 733.504 1075.17 706.873 1089.65 680.947 1105.33 C 670.845 1111.51 655.84 1122.66 646.837 1127.46 C 621.265 1141.09 598.801 1154.25 574.156 1169.34 C 554.566 1181.33 531.192 1201.25 513.046 1211.78 z" />
	<path transform="translate(-300,-150) scale(1.3)" fill="rgb(111,79,144)"
		d="M 513.046 1211.78 C 517.978 1200.65 553.079 1167.62 562.765 1158.94 C 665.561 1066.89 799.906 1012.62 932.796 981.148 C 947.518 977.661 997.039 962.121 1009.46 962.68 C 1001.98 967.901 969.599 978.319 959.516 981.816 C 935.517 990.18 911.571 998.695 887.68 1007.36 C 848.737 1021.91 798.017 1043.86 760.758 1061.93 C 733.504 1075.17 706.873 1089.65 680.947 1105.33 C 670.845 1111.51 655.84 1122.66 646.837 1127.46 C 621.265 1141.09 598.801 1154.25 574.156 1169.34 C 554.566 1181.33 531.192 1201.25 513.046 1211.78 z" />
	<path transform="translate(-300,-150) scale(1.3)" fill="url(#Gradient1)"
		d="M 1211.32 855.842 C 1251.68 795.166 1286.2 737.524 1358.18 711.231 C 1428.33 685.608 1494.11 694.611 1565.93 700.413 C 1591.94 702.725 1618.04 703.953 1644.15 704.095 C 1643.02 704.797 1639.96 706.576 1639.13 707.346 L 1638.16 707.812 C 1629.47 712.103 1617.98 719.79 1609.39 724.969 C 1598.26 731.563 1586.76 737.512 1574.95 742.785 C 1560.84 749.029 1544.97 753.904 1530.41 759.162 C 1527.64 760.162 1518.58 762.259 1517.53 762.73 L 1515.39 763.291 C 1491.78 773.076 1465.76 780.396 1441.38 788.859 C 1387.12 807.307 1333.26 826.935 1279.86 847.728 C 1253.28 857.991 1203.78 877.568 1178.53 891.038 C 1189.09 880.588 1202.35 867.64 1211.32 855.842 z" />
	<path transform="translate(-300,-150) scale(1.3)" fill="rgb(103,182,60)"
		d="M 1211.32 855.842 C 1212.67 855.638 1251.13 833.162 1259.86 829.516 C 1333.69 798.67 1409.08 778.535 1488.18 766.913 C 1497.15 765.595 1506.04 762.928 1515.39 763.291 C 1491.78 773.076 1465.76 780.396 1441.38 788.859 C 1387.12 807.307 1333.26 826.935 1279.86 847.728 C 1253.28 857.991 1203.78 877.568 1178.53 891.038 C 1189.09 880.588 1202.35 867.64 1211.32 855.842 z" />
	<path transform="translate(-300,-150) scale(1.3)" fill="rgb(111,79,144)"
		d="M 831.489 1072.59 C 860.198 1070.55 896.128 1072.23 924.937 1073.96 C 969.356 1076.65 1015.47 1079.28 1059.37 1086.47 C 1065.06 1087.41 1076.91 1088.04 1081.51 1090.3 C 1078.86 1091.08 1061.08 1089.44 1056.99 1089.32 L 909.751 1084.66 C 897.65 1084.36 884.89 1085.93 872.681 1085.51 C 807.249 1083.24 749.032 1097.82 686.735 1116.21 C 729.108 1081.97 779.073 1075.71 831.489 1072.59 z" />
	<path transform="translate(-300,-150) scale(1.3)" fill="rgb(111,79,144)"
		d="M 965.7 761.538 L 967.205 763.396 C 927.696 810.155 903.7 857.607 869.551 907.372 C 860.115 921.123 848.184 939.963 836.502 951.145 C 838.471 936.822 853.056 916.72 853.53 906.951 C 854.149 905.826 859.178 899.527 860.329 897.899 C 866.377 889.344 872.25 880.256 878.477 871.87 C 890.735 855.361 902.29 836.476 915.156 820.567 C 931.24 800.679 948.843 780.85 965.7 761.538 z" />
	<path transform="translate(-300,-150) scale(1.3)" fill="rgb(74,175,183)"
		d="M 853.53 906.951 C 853.056 916.72 838.471 936.822 836.502 951.145 C 832.284 956.478 827.049 960.306 822.869 964.799 C 804.752 984.271 787.94 986.716 763.188 994.392 C 799.412 969.985 826.037 940.138 853.53 906.951 z" />
	<path transform="translate(-300,-150) scale(1.3)" fill="rgb(64,79,89)"
		d="M 965.7 761.538 C 969.984 757.021 972.328 754.659 977.162 750.631 C 973.838 755.342 971.3 759.294 967.205 763.396 L 965.7 761.538 z" />
	<path transform="translate(-300,-150) scale(1.3)" fill="rgb(171,111,207)"
		d="M 1456.62 1011.54 C 1458.28 1013.07 1461.09 1018.2 1462.23 1020.31 C 1470.63 1035.91 1475.98 1039.47 1491.76 1046.38 C 1471.49 1055.08 1466.05 1062.57 1457.18 1082 C 1456.12 1080.79 1456.54 1081.42 1455.84 1080.01 C 1444.8 1057.66 1443.74 1057.52 1422.78 1046.63 C 1424.8 1045.79 1426.8 1044.93 1428.79 1044.03 C 1445.53 1036.46 1450.56 1027.48 1456.62 1011.54 z" />
</svg>